<?xml version="1.0" encoding="us-ascii" standalone="no"?><svg xmlns="http://www.w3.org/2000/svg" xmlns:xlink="http://www.w3.org/1999/xlink" contentStyleType="text/css" height="411px" preserveAspectRatio="none" style="width:629px;height:411px;background:#FFFFFF;" version="1.1" viewBox="0 0 629 411" width="629px" zoomAndPan="magnify"><defs/><g><!--class Accountability--><g id="elem_Accountability"><rect codeLine="10" fill="#FFFFE0" height="44.582" id="Accountability" rx="2.5" ry="2.5" style="stroke:#181818;stroke-width:0.5;" width="93" x="180.5" y="7"/><text fill="#000000" font-family="sans-serif" font-size="12" font-style="italic" lengthAdjust="spacing" textLength="43" x="205.5" y="24.9492">&#171;entity&#187;</text><text fill="#000000" font-family="sans-serif" font-size="14" lengthAdjust="spacing" textLength="87" x="183.5" y="43.0684">Accountability</text></g><!--class Party--><g id="elem_Party"><rect codeLine="11" fill="#FFFFE0" height="44.582" id="Party" rx="2.5" ry="2.5" style="stroke:#181818;stroke-width:0.5;" width="45" x="204.5" y="131"/><text fill="#000000" font-family="sans-serif" font-size="12" font-style="italic" lengthAdjust="spacing" textLength="43" x="205.5" y="148.9492">&#171;entity&#187;</text><text fill="#000000" font-family="sans-serif" font-size="14" lengthAdjust="spacing" textLength="33" x="210.5" y="167.0684">Party</text></g><!--class OrganizationalUnit--><g id="elem_OrganizationalUnit"><rect codeLine="12" fill="#FFFFE0" height="44.582" id="OrganizationalUnit" rx="2.5" ry="2.5" style="stroke:#181818;stroke-width:0.5;" width="121" x="36.5" y="237"/><text fill="#000000" font-family="sans-serif" font-size="12" font-style="italic" lengthAdjust="spacing" textLength="43" x="75.5" y="254.9492">&#171;entity&#187;</text><text fill="#000000" font-family="sans-serif" font-size="14" lengthAdjust="spacing" textLength="115" x="39.5" y="273.0684">OrganizationalUnit</text></g><!--class Employee--><g id="elem_Employee"><rect codeLine="13" fill="#FFFFE0" height="44.582" id="Employee" rx="2.5" ry="2.5" style="stroke:#181818;stroke-width:0.5;" width="68" x="193" y="237"/><text fill="#000000" font-family="sans-serif" font-size="12" font-style="italic" lengthAdjust="spacing" textLength="43" x="205.5" y="254.9492">&#171;entity&#187;</text><text fill="#000000" font-family="sans-serif" font-size="14" lengthAdjust="spacing" textLength="62" x="196" y="273.0684">Employee</text></g><!--class AccountabilityType--><g id="elem_AccountabilityType"><rect codeLine="14" fill="#E0FFFF" height="44.582" id="AccountabilityType" rx="2.5" ry="2.5" style="stroke:#181818;stroke-width:0.5;" width="125" x="335.5" y="7"/><text fill="#000000" font-family="sans-serif" font-size="12" font-style="italic" lengthAdjust="spacing" textLength="66" x="365" y="24.9492">&#171;reference&#187;</text><text fill="#000000" font-family="sans-serif" font-size="14" lengthAdjust="spacing" textLength="119" x="338.5" y="43.0684">AccountabilityType</text></g><!--class UnitType--><g id="elem_UnitType"><rect codeLine="15" fill="#E0FFFF" height="44.582" id="UnitType" rx="2.5" ry="2.5" style="stroke:#181818;stroke-width:0.5;" width="68" x="18" y="361"/><text fill="#000000" font-family="sans-serif" font-size="12" font-style="italic" lengthAdjust="spacing" textLength="66" x="19" y="378.9492">&#171;reference&#187;</text><text fill="#000000" font-family="sans-serif" font-size="14" lengthAdjust="spacing" textLength="56" x="24" y="397.0684">UnitType</text></g><!--class PositionType--><g id="elem_PositionType"><rect codeLine="16" fill="#E0FFFF" height="44.582" id="PositionType" rx="2.5" ry="2.5" style="stroke:#181818;stroke-width:0.5;" width="88" x="240" y="361"/><text fill="#000000" font-family="sans-serif" font-size="12" font-style="italic" lengthAdjust="spacing" textLength="66" x="251" y="378.9492">&#171;reference&#187;</text><text fill="#000000" font-family="sans-serif" font-size="14" lengthAdjust="spacing" textLength="82" x="243" y="397.0684">PositionType</text></g><!--class Effectivity--><g id="elem_Effectivity"><rect codeLine="17" fill="#F0E0E0" height="44.582" id="Effectivity" rx="2.5" ry="2.5" style="stroke:#181818;stroke-width:0.5;" width="84" x="7" y="7"/><text fill="#000000" font-family="sans-serif" font-size="12" font-style="italic" lengthAdjust="spacing" textLength="82" x="8" y="24.9492">&#171;value-object&#187;</text><text fill="#000000" font-family="sans-serif" font-size="14" lengthAdjust="spacing" textLength="60" x="19" y="43.0684">Effectivity</text></g><!--class Contact--><g id="elem_Contact"><rect codeLine="18" fill="#FFFFFF" height="44.582" id="Contact" rx="2.5" ry="2.5" style="stroke:#181818;stroke-width:0.5;" width="60" x="383" y="131"/><text fill="#000000" font-family="sans-serif" font-size="12" font-style="italic" lengthAdjust="spacing" textLength="58" x="384" y="148.9492">&#171;abstract&#187;</text><text fill="#000000" font-family="sans-serif" font-size="14" lengthAdjust="spacing" textLength="49" x="388.5" y="167.0684">Contact</text></g><!--class Phone--><g id="elem_Phone"><rect codeLine="19" fill="#F0E0E0" height="44.582" id="Phone" rx="2.5" ry="2.5" style="stroke:#181818;stroke-width:0.5;" width="84" x="296" y="237"/><text fill="#000000" font-family="sans-serif" font-size="12" font-style="italic" lengthAdjust="spacing" textLength="82" x="297" y="254.9492">&#171;value-object&#187;</text><text fill="#000000" font-family="sans-serif" font-size="14" lengthAdjust="spacing" textLength="41" x="317.5" y="273.0684">Phone</text></g><!--class PersonName--><g id="elem_PersonName"><rect codeLine="20" fill="#F0E0E0" height="44.582" id="PersonName" rx="2.5" ry="2.5" style="stroke:#181818;stroke-width:0.5;" width="87" x="415.5" y="237"/><text fill="#000000" font-family="sans-serif" font-size="12" font-style="italic" lengthAdjust="spacing" textLength="82" x="418" y="254.9492">&#171;value-object&#187;</text><text fill="#000000" font-family="sans-serif" font-size="14" lengthAdjust="spacing" textLength="81" x="418.5" y="273.0684">PersonName</text></g><!--class OrgName--><g id="elem_OrgName"><rect codeLine="21" fill="#F0E0E0" height="44.582" id="OrgName" rx="2.5" ry="2.5" style="stroke:#181818;stroke-width:0.5;" width="84" x="538" y="237"/><text fill="#000000" font-family="sans-serif" font-size="12" font-style="italic" lengthAdjust="spacing" textLength="82" x="539" y="254.9492">&#171;value-object&#187;</text><text fill="#000000" font-family="sans-serif" font-size="14" lengthAdjust="spacing" textLength="60" x="550" y="273.0684">OrgName</text></g><!--class Money--><g id="elem_Money"><rect codeLine="22" fill="#F0E0E0" height="44.582" id="Money" rx="2.5" ry="2.5" style="stroke:#181818;stroke-width:0.5;" width="84" x="121" y="361"/><text fill="#000000" font-family="sans-serif" font-size="12" font-style="italic" lengthAdjust="spacing" textLength="82" x="122" y="378.9492">&#171;value-object&#187;</text><text fill="#000000" font-family="sans-serif" font-size="14" lengthAdjust="spacing" textLength="42" x="142" y="397.0684">Money</text></g><!--reverse link Party to OrganizationalUnit--><g id="link_Party_OrganizationalUnit"><path d="M190.3019,183.8615 C167.8919,201.7815 147.65,217.98 123.88,237 " fill="none" id="Party-backto-OrganizationalUnit" style="stroke:#181818;stroke-width:1.0;"/><polygon fill="none" points="204.36,172.62,186.5548,179.1754,194.0491,188.5475,204.36,172.62" style="stroke:#181818;stroke-width:1.0;"/></g><!--reverse link Party to Employee--><g id="link_Party_Employee"><path d="M227,194.05 C227,211.9 227,219.14 227,236.98 " fill="none" id="Party-backto-Employee" style="stroke:#181818;stroke-width:1.0;"/><polygon fill="none" points="227,176.05,221,194.05,233,194.05,227,176.05" style="stroke:#181818;stroke-width:1.0;"/></g><!--reverse link Contact to Phone--><g id="link_Contact_Phone"><path d="M386.9328,190.6506 C374.0628,208.5006 366.39,219.14 353.52,236.98 " fill="none" id="Contact-backto-Phone" style="stroke:#181818;stroke-width:1.0;"/><polygon fill="none" points="397.46,176.05,382.0659,187.1416,391.7997,194.1597,397.46,176.05" style="stroke:#181818;stroke-width:1.0;"/></g><!--reverse link Contact to PersonName--><g id="link_Contact_PersonName"><path d="M429.8148,192.51 C437.7148,210.36 441.59,219.14 449.48,236.98 " fill="none" id="Contact-backto-PersonName" style="stroke:#181818;stroke-width:1.0;"/><polygon fill="none" points="422.53,176.05,424.3282,194.9383,435.3015,190.0817,422.53,176.05" style="stroke:#181818;stroke-width:1.0;"/></g><!--reverse link Contact to OrgName--><g id="link_Contact_OrgName"><path d="M458.5171,182.849 C487.2771,200.769 515.24,218.17 545.37,236.93 " fill="none" id="Contact-backto-OrgName" style="stroke:#181818;stroke-width:1.0;"/><polygon fill="none" points="443.24,173.33,455.3441,187.9413,461.6901,177.7566,443.24,173.33" style="stroke:#181818;stroke-width:1.0;"/></g><!--link Accountability to Party--><g id="link_Accountability_Party"><path codeLine="26" d="M190.77,52.11 C174.07,65.05 159.61,82.55 168,101 C175.48,117.46 186.1304,127.3728 199.4304,136.3128 " fill="none" id="Accountability-to-Party" style="stroke:#181818;stroke-width:1.0;"/><polygon fill="#181818" points="204.41,139.66,199.1721,131.3195,200.2603,136.8707,194.7092,137.959,204.41,139.66" style="stroke:#181818;stroke-width:1.0;"/><text fill="#000000" font-family="sans-serif" font-size="13" lengthAdjust="spacing" textLength="70" x="169" y="97.0283">accountable</text><text fill="#000000" font-family="sans-serif" font-size="13" lengthAdjust="spacing" textLength="7" x="189.4199" y="129.9553">1</text></g><!--link Accountability to Party--><g id="link_Accountability_Party"><path codeLine="27" d="M236.84,52.24 C241.97,66.08 246.66,84.47 244,101 C242.39,111.04 241.1359,116.1224 237.8859,125.1824 " fill="none" id="Accountability-to-Party-1" style="stroke:#181818;stroke-width:1.0;"/><polygon fill="#181818" points="235.86,130.83,242.664,123.7092,237.5483,126.1236,235.1338,121.008,235.86,130.83" style="stroke:#181818;stroke-width:1.0;"/><text fill="#000000" font-family="sans-serif" font-size="13" lengthAdjust="spacing" textLength="66" x="246" y="97.0283">responsible</text><text fill="#000000" font-family="sans-serif" font-size="13" lengthAdjust="spacing" textLength="7" x="230.3005" y="119.5767">1</text></g><!--link Accountability to AccountabilityType--><g id="link_Accountability_AccountabilityType"><path codeLine="28" d="M273.73,29.5 C292.71,29.5 308.94,29.5 329.3,29.5 " fill="none" id="Accountability-to-AccountabilityType" style="stroke:#181818;stroke-width:1.0;"/><polygon fill="#181818" points="335.3,29.5,326.3,25.5,330.3,29.5,326.3,33.5,335.3,29.5" style="stroke:#181818;stroke-width:1.0;"/><text fill="#000000" font-family="sans-serif" font-size="13" lengthAdjust="spacing" textLength="25" x="292" y="22.5283">type</text><text fill="#000000" font-family="sans-serif" font-size="13" lengthAdjust="spacing" textLength="7" x="320.6456" y="25.5865">1</text></g><!--reverse link Effectivity to Accountability--><g id="link_Effectivity_Accountability"><path codeLine="29" d="M97.18,29.5 C124.02,29.5 152.79,29.5 180.43,29.5 " fill="none" id="Effectivity-backto-Accountability" style="stroke:#181818;stroke-width:1.0;"/><polygon fill="#181818" points="91.18,29.5,100.18,33.5,96.18,29.5,100.18,25.5,91.18,29.5" style="stroke:#181818;stroke-width:1.0;"/><text fill="#000000" font-family="sans-serif" font-size="13" lengthAdjust="spacing" textLength="53" x="109.25" y="22.5283">effectivity</text><text fill="#000000" font-family="sans-serif" font-size="13" lengthAdjust="spacing" textLength="7" x="99.0313" y="25.1283">1</text></g><!--link Party to Contact--><g id="link_Party_Contact"><path codeLine="31" d="M249.81,153.5 C283.27,153.5 339.74,153.5 376.92,153.5 " fill="none" id="Party-to-Contact" style="stroke:#181818;stroke-width:1.0;"/><polygon fill="#181818" points="382.92,153.5,373.92,149.5,377.92,153.5,373.92,157.5,382.92,153.5" style="stroke:#181818;stroke-width:1.0;"/><text fill="#000000" font-family="sans-serif" font-size="13" lengthAdjust="spacing" textLength="50" x="291.25" y="146.5283">contacts</text><text fill="#000000" font-family="sans-serif" font-size="13" lengthAdjust="spacing" textLength="20" x="355.0293" y="148.9247">1..*</text></g><!--link Employee to PositionType--><g id="link_Employee_PositionType"><path codeLine="33" d="M237.06,282.03 C247.41,304.19 260.9195,333.1044 271.3095,355.3344 " fill="none" id="Employee-to-PositionType" style="stroke:#181818;stroke-width:1.0;"/><polygon fill="#181818" points="273.85,360.77,273.6629,350.9229,271.7329,356.2403,266.4155,354.3103,273.85,360.77" style="stroke:#181818;stroke-width:1.0;"/><text fill="#000000" font-family="sans-serif" font-size="13" lengthAdjust="spacing" textLength="45" x="260" y="327.0283">position</text><text fill="#000000" font-family="sans-serif" font-size="13" lengthAdjust="spacing" textLength="22" x="246.4303" y="349.8865">0..1</text></g><!--link Employee to Money--><g id="link_Employee_Money"><path codeLine="34" d="M215.71,282.03 C204.08,304.19 188.847,333.2266 177.187,355.4566 " fill="none" id="Employee-to-Money" style="stroke:#181818;stroke-width:1.0;"/><polygon fill="#181818" points="174.4,360.77,182.1228,354.6578,176.7225,356.3421,175.0382,350.9418,174.4,360.77" style="stroke:#181818;stroke-width:1.0;"/><text fill="#000000" font-family="sans-serif" font-size="13" lengthAdjust="spacing" textLength="35" x="200" y="327.0283">salary</text><text fill="#000000" font-family="sans-serif" font-size="13" lengthAdjust="spacing" textLength="22" x="152.5025" y="349.8865">0..1</text></g><!--link OrganizationalUnit to UnitType--><g id="link_OrganizationalUnit_UnitType"><path codeLine="36" d="M71.33,282.09 C63.23,290.49 55.27,300.8 51,312 C45.07,327.55 44.9267,340.5327 46.8367,354.8527 " fill="none" id="OrganizationalUnit-to-UnitType" style="stroke:#181818;stroke-width:1.0;"/><polygon fill="#181818" points="47.63,360.8,50.405,351.3502,46.969,355.8439,42.4752,352.4078,47.63,360.8" style="stroke:#181818;stroke-width:1.0;"/><text fill="#000000" font-family="sans-serif" font-size="13" lengthAdjust="spacing" textLength="24" x="52" y="327.0283">kind</text><text fill="#000000" font-family="sans-serif" font-size="13" lengthAdjust="spacing" textLength="22" x="21.6914" y="349.9242">0..1</text></g><!--link OrganizationalUnit to Money--><g id="link_OrganizationalUnit_Money"><path codeLine="37" d="M108.65,282.03 C120.64,304.19 136.3644,333.2631 148.3944,355.4931 " fill="none" id="OrganizationalUnit-to-Money" style="stroke:#181818;stroke-width:1.0;"/><polygon fill="#181818" points="151.25,360.77,150.4845,350.9509,148.8703,356.3726,143.4486,354.7585,151.25,360.77" style="stroke:#181818;stroke-width:1.0;"/><text fill="#000000" font-family="sans-serif" font-size="13" lengthAdjust="spacing" textLength="39" x="135" y="327.0283">budget</text><text fill="#000000" font-family="sans-serif" font-size="13" lengthAdjust="spacing" textLength="22" x="123.4203" y="349.8865">0..1</text></g><!--SRC=[bLEzRjim4Dxv58Gx10XW8rs3m41hE5FQU4XHP3nJPuiDHGeaxKJTuYu9CkGD-X0536H9da5wevviCf4X1sgXGUJTzztFTyTK9iY5j48XI-ipPhal-4oYIbpJag5F3PdSbTGvMCYuKE3SPn1NSsiMEXaPPUp92MelVJ4SyWzdSfxwIrJAN7UoOEgy1U5htlTKUknaM9oXHItmDTMe0Dr9Mu9QODzCV-0ssUdHc3x63Wvu-RkwBP_Bb_9F-Lmzb6jUtLQ_gllQHATL-SGs8Vad8IYWXwbKrEbRny4z0Rl7UcxdeELFyD9eKD-qz0sfyCQZJW8r4CPPhao1s07RBUQYo757ce2gyxtdcnWdwwhUyuzdCz9ABZUzxieN42D31GZVd6ACdHgDBT5Z7u4NiMYTqLyX-rS2IVeVw2zKIRk1EFZLPiftvPh-JzKZsvMLzvF-aFS-zhRIysCEqK_FfWjhqUL6ExaFQmEsFKOYUlgr62em6cCXABxT6Dic3h47WyDUb8A0OdjoZCK5u_qQTpGOr2KtTe70URZknMu49P031PQojZUyYOuRI0HweKa7EiQUBf8vUlON]--></g></svg>